<svg xmlns="http://www.w3.org/2000/svg" height="800" width="800" viewBox="0 0 511.999 511.999" xmlns:v="https://vecta.io/nano"><path d="M469.237 390.031H42.763C19.182 390.031 0 370.847 0 347.267V164.731c0-23.58 19.182-42.763 42.763-42.763h426.473c23.58 0 42.763 19.182 42.763 42.763v182.537c.001 23.579-19.181 42.763-42.762 42.763zM42.763 148.914c-8.722 0-15.815 7.095-15.815 15.815v182.537c0 8.721 7.095 15.815 15.815 15.815h426.473c8.721 0 15.815-7.095 15.815-15.815V164.731c0-8.722-7.095-15.815-15.815-15.815H42.763v-.002zm240.184 187.928H67.366a13.48 13.48 0 0 1-13.474-13.474 13.48 13.48 0 0 1 13.474-13.474h215.582a13.48 13.48 0 0 1 13.474 13.474 13.48 13.48 0 0 1-13.475 13.474z" fill="#b1404a"/><circle cx="365.905" cy="241.905" r="45.811" fill="#ebafae"/><g fill="#b1404a"><path d="M365.898 301.196c-15.836 0-30.723-6.167-41.919-17.364s-17.365-26.085-17.365-41.921 6.167-30.723 17.365-41.919 26.084-17.365 41.919-17.365 30.724 6.167 41.921 17.366 17.365 26.082 17.365 41.918a58.89 58.89 0 0 1-17.365 41.921c-11.197 11.197-26.084 17.364-41.921 17.364zm0-91.621a32.12 32.12 0 0 0-32.337 32.337 32.12 32.12 0 0 0 9.472 22.866c6.106 6.108 14.228 9.471 22.865 9.471a32.12 32.12 0 0 0 22.866-9.471c6.108-6.108 9.472-14.228 9.472-22.866a32.12 32.12 0 0 0-32.338-32.337z"/><path d="M444.634 337.514c-3.608 0-7.207-1.44-9.86-4.29l-46.34-49.735c-5.073-5.443-4.771-13.97.674-19.042 5.439-5.071 13.968-4.772 19.042.674l46.34 49.735c5.073 5.443 4.771 13.97-.674 19.042a13.42 13.42 0 0 1-9.182 3.616z"/></g></svg>